ffmpeg started on 2025-05-28 at 11:14:41
Report written to "D:\Convert\FFMetrics\reports\psnr_report-6.txt"
Log level: 32
Command line:
ffmpeg -hide_banner -nostdin -i "G:\\\xc0\xed\xe8\xec\xe5\\\xce\xed\xe3\xee\xe8\xed\xe3\xe8\\!_36_\xce\xf1\xe5\xed\xfc_2024\\JamClub\\MF \xcf\xf0\xe8\xe7\xf0\xe0\xea\\\xd2\xc2-2\\[JamClub] MF Ghost 2 - 11_HEVC.mkv" -i "G:\\\xc0\xed\xe8\xec\xe5\\\xce\xed\xe3\xee\xe8\xed\xe3\xe8\\!_36_\xce\xf1\xe5\xed\xfc_2024\\JamClub\\MF \xcf\xf0\xe8\xe7\xf0\xe0\xea\\\xd2\xc2-2\\[JamClub] MF Ghost 2 - 11.mp4" -lavfi "[0:v]settb=AVTB,setpts=PTS-STARTPTS,format=pix_fmts=yuv420p10,fps=24000/1001,scale=1920:1080:flags=bicubic[main];[1:v]settb=AVTB,setpts=PTS-STARTPTS,format=pix_fmts=yuv420p,fps=24000/1001,scale=1920:1080:flags=bicubic[ref];[main][ref]psnr=eof_action=endall:stats_file='D\\:/Convert/FFMetrics/logs/psnr_logfile-6.txt'" -f null -
Input #0, matroska,webm, from 'G:\Аниме\Онгоинги\!_36_Осень_2024\JamClub\MF Призрак\ТВ-2\[JamClub] MF Ghost 2 - 11_HEVC.mkv':
  Metadata:
    COMPATIBLE_BRANDS: isomiso2avc1mp41
    MAJOR_BRAND     : isom
    MINOR_VERSION   : 512
    ENCODER         : Lavf61.7.100
  Duration: 00:24:02.37, start: -0.001000, bitrate: 1745 kb/s
  Stream #0:0: Video: hevc (Main 10), yuv420p10le(tv, bt709, progressive), 1920x1080 [SAR 1:1 DAR 16:9], 23.98 fps, 23.98 tbr, 1k tbn (default)
      Metadata:
        HANDLER_NAME    : VideoHandler
        VENDOR_ID       : [0][0][0][0]
        ENCODER         : Lavc61.19.100 libx265
        BPS             : 1545865
        DURATION        : 00:24:02.232708333
        NUMBER_OF_FRAMES: 34579
        NUMBER_OF_BYTES : 278687168
        _STATISTICS_WRITING_APP: mkvpropedit v66.0.0 ('Josie') 64-bit
        _STATISTICS_WRITING_DATE_UTC: 2025-05-27 14:25:49
        _STATISTICS_TAGS: BPS DURATION NUMBER_OF_FRAMES NUMBER_OF_BYTES
  Stream #0:1(eng): Audio: aac (LC), 48000 Hz, stereo, fltp (default)
      Metadata:
        HANDLER_NAME    : SoundHandler
        VENDOR_ID       : [0][0][0][0]
        ENCODER         : Lavc61.19.100 aac
        BPS             : 195732
        DURATION        : 00:24:02.328000000
        NUMBER_OF_FRAMES: 67610
        NUMBER_OF_BYTES : 35288829
        _STATISTICS_WRITING_APP: mkvpropedit v66.0.0 ('Josie') 64-bit
        _STATISTICS_WRITING_DATE_UTC: 2025-05-27 14:25:49
        _STATISTICS_TAGS: BPS DURATION NUMBER_OF_FRAMES NUMBER_OF_BYTES
Input #1, mov,mp4,m4a,3gp,3g2,mj2, from 'G:\Аниме\Онгоинги\!_36_Осень_2024\JamClub\MF Призрак\ТВ-2\[JamClub] MF Ghost 2 - 11.mp4':
  Metadata:
    major_brand     : isom
    minor_version   : 512
    compatible_brands: isomiso2avc1mp41
    encoder         : Lavf60.16.100
  Duration: 00:24:02.35, start: 0.000000, bitrate: 4321 kb/s
  Stream #1:0[0x1](und): Video: h264 (High) (avc1 / 0x31637661), yuv420p(progressive), 1920x1080 [SAR 1:1 DAR 16:9], 4123 kb/s, 23.98 fps, 23.98 tbr, 90k tbn (default)
      Metadata:
        handler_name    : VideoHandler
        vendor_id       : [0][0][0][0]
  Stream #1:1[0x2](eng): Audio: aac (LC) (mp4a / 0x6134706D), 48000 Hz, stereo, fltp, 191 kb/s (default)
      Metadata:
        handler_name    : SoundHandler
        vendor_id       : [0][0][0][0]
Stream mapping:
  Stream #0:0 (hevc) -> settb:default
  Stream #1:0 (h264) -> settb:default
  psnr:default -> Stream #0:0 (wrapped_avframe)
  Stream #0:1 -> #0:1 (aac (native) -> pcm_s16le (native))
Output #0, null, to 'pipe:':
  Metadata:
    COMPATIBLE_BRANDS: isomiso2avc1mp41
    MAJOR_BRAND     : isom
    MINOR_VERSION   : 512
    encoder         : Lavf61.7.100
  Stream #0:0: Video: wrapped_avframe, yuv420p10le(tv, bt709, progressive), 1920x1080 [SAR 1:1 DAR 16:9], q=2-31, 200 kb/s, 23.98 fps, 23.98 tbn
      Metadata:
        encoder         : Lavc61.19.100 wrapped_avframe
  Stream #0:1(eng): Audio: pcm_s16le, 48000 Hz, stereo, s16, 1536 kb/s (default)
      Metadata:
        HANDLER_NAME    : SoundHandler
        VENDOR_ID       : [0][0][0][0]
        _STATISTICS_TAGS: BPS DURATION NUMBER_OF_FRAMES NUMBER_OF_BYTES
        BPS             : 195732
        DURATION        : 00:24:02.328000000
        NUMBER_OF_FRAMES: 67610
        NUMBER_OF_BYTES : 35288829
        _STATISTICS_WRITING_APP: mkvpropedit v66.0.0 ('Josie') 64-bit
        _STATISTICS_WRITING_DATE_UTC: 2025-05-27 14:25:49
        encoder         : Lavc61.19.100 pcm_s16le
frame=  112 fps=0.0 q=-0.0 size=N/A time=00:00:04.67 bitrate=N/A speed=9.14x    frame=  266 fps=260 q=-0.0 size=N/A time=00:00:11.09 bitrate=N/A speed=10.9x    frame=  458 fps=296 q=-0.0 size=N/A time=00:00:19.10 bitrate=N/A speed=12.3x    frame=  668 fps=325 q=-0.0 size=N/A time=00:00:27.86 bitrate=N/A speed=13.6x    frame=  897 fps=348 q=-0.0 size=N/A time=00:00:37.41 bitrate=N/A speed=14.5x    frame= 1143 fps=370 q=-0.0 size=N/A time=00:00:47.67 bitrate=N/A speed=15.4x    frame= 1356 fps=376 q=-0.0 size=N/A time=00:00:56.55 bitrate=N/A speed=15.7x    frame= 1565 fps=381 q=-0.0 size=N/A time=00:01:05.27 bitrate=N/A speed=15.9x    frame= 1831 fps=395 q=-0.0 size=N/A time=00:01:16.36 bitrate=N/A speed=16.5x    frame= 1974 fps=384 q=-0.0 size=N/A time=00:01:22.33 bitrate=N/A speed=  16x    frame= 2136 fps=377 q=-0.0 size=N/A time=00:01:29.08 bitrate=N/A speed=15.7x    frame= 2310 fps=374 q=-0.0 size=N/A time=00:01:36.34 bitrate=N/A speed=15.6x    frame= 2497 fps=373 q=-0.0 size=N/A time=00:01:44.14 bitrate=N/A speed=15.6x    frame= 2682 fps=372 q=-0.0 size=N/A time=00:01:51.86 bitrate=N/A speed=15.5x    frame= 2867 fps=371 q=-0.0 size=N/A time=00:01:59.57 bitrate=N/A speed=15.5x    frame= 3054 fps=370 q=-0.0 size=N/A time=00:02:07.37 bitrate=N/A speed=15.4x    frame= 3218 fps=367 q=-0.0 size=N/A time=00:02:14.21 bitrate=N/A speed=15.3x    frame= 3375 fps=363 q=-0.0 size=N/A time=00:02:20.76 bitrate=N/A speed=15.1x    frame= 3526 fps=359 q=-0.0 size=N/A time=00:02:27.06 bitrate=N/A speed=  15x    frame= 3696 fps=358 q=-0.0 size=N/A time=00:02:34.15 bitrate=N/A speed=14.9x    frame= 3833 fps=353 q=-0.0 size=N/A time=00:02:39.86 bitrate=N/A speed=14.7x    frame= 3961 fps=349 q=-0.0 size=N/A time=00:02:45.20 bitrate=N/A speed=14.5x    frame= 4176 fps=351 q=-0.0 size=N/A time=00:02:54.17 bitrate=N/A speed=14.6x    frame= 4445 fps=359 q=-0.0 size=N/A time=00:03:05.43 bitrate=N/A speed=  15x    frame= 4729 fps=366 q=-0.0 size=N/A time=00:03:17.23 bitrate=N/A speed=15.3x    frame= 4945 fps=368 q=-0.0 size=N/A time=00:03:26.24 bitrate=N/A speed=15.4x    frame= 5237 fps=375 q=-0.0 size=N/A time=00:03:38.42 bitrate=N/A speed=15.7x    frame= 5427 fps=375 q=-0.0 size=N/A time=00:03:46.35 bitrate=N/A speed=15.7x    frame= 5662 fps=378 q=-0.0 size=N/A time=00:03:56.15 bitrate=N/A speed=15.8x    frame= 5824 fps=376 q=-0.0 size=N/A time=00:04:02.90 bitrate=N/A speed=15.7x    frame= 6001 fps=375 q=-0.0 size=N/A time=00:04:10.29 bitrate=N/A speed=15.6x    frame= 6213 fps=376 q=-0.0 size=N/A time=00:04:19.13 bitrate=N/A speed=15.7x    frame= 6423 fps=377 q=-0.0 size=N/A time=00:04:27.89 bitrate=N/A speed=15.7x    frame= 6676 fps=380 q=-0.0 size=N/A time=00:04:38.44 bitrate=N/A speed=15.9x    frame= 6937 fps=384 q=-0.0 size=N/A time=00:04:49.33 bitrate=N/A speed=  16x    frame= 7190 fps=387 q=-0.0 size=N/A time=00:04:59.88 bitrate=N/A speed=16.1x    frame= 7440 fps=389 q=-0.0 size=N/A time=00:05:10.31 bitrate=N/A speed=16.2x    frame= 7585 fps=386 q=-0.0 size=N/A time=00:05:16.35 bitrate=N/A speed=16.1x    frame= 7814 fps=388 q=-0.0 size=N/A time=00:05:25.90 bitrate=N/A speed=16.2x    frame= 8053 fps=390 q=-0.0 size=N/A time=00:05:35.87 bitrate=N/A speed=16.3x    frame= 8293 fps=392 q=-0.0 size=N/A time=00:05:45.88 bitrate=N/A speed=16.3x    frame= 8565 fps=395 q=-0.0 size=N/A time=00:05:57.23 bitrate=N/A speed=16.5x    frame= 8799 fps=396 q=-0.0 size=N/A time=00:06:06.99 bitrate=N/A speed=16.5x    frame= 9001 fps=396 q=-0.0 size=N/A time=00:06:15.41 bitrate=N/A speed=16.5x    frame= 9235 fps=398 q=-0.0 size=N/A time=00:06:25.17 bitrate=N/A speed=16.6x    frame= 9511 fps=400 q=-0.0 size=N/A time=00:06:36.68 bitrate=N/A speed=16.7x    frame= 9729 fps=401 q=-0.0 size=N/A time=00:06:45.78 bitrate=N/A speed=16.7x    frame= 9939 fps=401 q=-0.0 size=N/A time=00:06:54.53 bitrate=N/A speed=16.7x    frame=10202 fps=403 q=-0.0 size=N/A time=00:07:05.50 bitrate=N/A speed=16.8x    frame=10460 fps=405 q=-0.0 size=N/A time=00:07:16.26 bitrate=N/A speed=16.9x    frame=10668 fps=405 q=-0.0 size=N/A time=00:07:24.94 bitrate=N/A speed=16.9x    frame=10906 fps=406 q=-0.0 size=N/A time=00:07:34.87 bitrate=N/A speed=16.9x    frame=11163 fps=408 q=-0.0 size=N/A time=00:07:45.59 bitrate=N/A speed=  17x    frame=11401 fps=409 q=-0.0 size=N/A time=00:07:55.51 bitrate=N/A speed=17.1x    frame=11632 fps=410 q=-0.0 size=N/A time=00:08:05.15 bitrate=N/A speed=17.1x    frame=11895 fps=411 q=-0.0 size=N/A time=00:08:16.12 bitrate=N/A speed=17.2x    frame=12148 fps=413 q=-0.0 size=N/A time=00:08:26.67 bitrate=N/A speed=17.2x    frame=12356 fps=413 q=-0.0 size=N/A time=00:08:35.34 bitrate=N/A speed=17.2x    frame=12573 fps=413 q=-0.0 size=N/A time=00:08:44.39 bitrate=N/A speed=17.2x    frame=12795 fps=413 q=-0.0 size=N/A time=00:08:53.65 bitrate=N/A speed=17.2x    frame=13025 fps=414 q=-0.0 size=N/A time=00:09:03.25 bitrate=N/A speed=17.3x    frame=13213 fps=413 q=-0.0 size=N/A time=00:09:11.09 bitrate=N/A speed=17.2x    frame=13376 fps=411 q=-0.0 size=N/A time=00:09:17.89 bitrate=N/A speed=17.2x    frame=13556 fps=410 q=-0.0 size=N/A time=00:09:25.39 bitrate=N/A speed=17.1x    frame=13708 fps=408 q=-0.0 size=N/A time=00:09:31.73 bitrate=N/A speed=  17x    frame=13888 fps=408 q=-0.0 size=N/A time=00:09:39.24 bitrate=N/A speed=  17x    frame=14098 fps=408 q=-0.0 size=N/A time=00:09:48.00 bitrate=N/A speed=  17x    frame=14341 fps=409 q=-0.0 size=N/A time=00:09:58.13 bitrate=N/A speed=  17x    frame=14591 fps=410 q=-0.0 size=N/A time=00:10:08.56 bitrate=N/A speed=17.1x    frame=14817 fps=410 q=-0.0 size=N/A time=00:10:17.99 bitrate=N/A speed=17.1x    frame=15014 fps=409 q=-0.0 size=N/A time=00:10:26.20 bitrate=N/A speed=17.1x    frame=15275 fps=411 q=-0.0 size=N/A time=00:10:37.09 bitrate=N/A speed=17.1x    frame=15520 fps=412 q=-0.0 size=N/A time=00:10:47.31 bitrate=N/A speed=17.2x    frame=15763 fps=413 q=-0.0 size=N/A time=00:10:57.44 bitrate=N/A speed=17.2x    frame=16004 fps=413 q=-0.0 size=N/A time=00:11:07.50 bitrate=N/A speed=17.2x    frame=16222 fps=413 q=-0.0 size=N/A time=00:11:16.59 bitrate=N/A speed=17.2x    frame=16404 fps=413 q=-0.0 size=N/A time=00:11:24.18 bitrate=N/A speed=17.2x    frame=16659 fps=414 q=-0.0 size=N/A time=00:11:34.81 bitrate=N/A speed=17.3x    frame=16918 fps=415 q=-0.0 size=N/A time=00:11:45.62 bitrate=N/A speed=17.3x    frame=17156 fps=415 q=-0.0 size=N/A time=00:11:55.54 bitrate=N/A speed=17.3x    frame=17380 fps=416 q=-0.0 size=N/A time=00:12:04.89 bitrate=N/A speed=17.3x    frame=17608 fps=416 q=-0.0 size=N/A time=00:12:14.40 bitrate=N/A speed=17.3x    frame=17819 fps=416 q=-0.0 size=N/A time=00:12:23.20 bitrate=N/A speed=17.3x    frame=18024 fps=416 q=-0.0 size=N/A time=00:12:31.75 bitrate=N/A speed=17.3x    frame=18264 fps=416 q=-0.0 size=N/A time=00:12:41.76 bitrate=N/A speed=17.4x    frame=18455 fps=416 q=-0.0 size=N/A time=00:12:49.72 bitrate=N/A speed=17.3x    frame=18653 fps=415 q=-0.0 size=N/A time=00:12:57.98 bitrate=N/A speed=17.3x    frame=18817 fps=414 q=-0.0 size=N/A time=00:13:04.82 bitrate=N/A speed=17.3x    frame=19022 fps=414 q=-0.0 size=N/A time=00:13:13.37 bitrate=N/A speed=17.3x    frame=19204 fps=413 q=-0.0 size=N/A time=00:13:20.96 bitrate=N/A speed=17.2x    frame=19393 fps=413 q=-0.0 size=N/A time=00:13:28.84 bitrate=N/A speed=17.2x    frame=19654 fps=414 q=-0.0 size=N/A time=00:13:39.73 bitrate=N/A speed=17.3x    frame=19910 fps=415 q=-0.0 size=N/A time=00:13:50.41 bitrate=N/A speed=17.3x    frame=20136 fps=415 q=-0.0 size=N/A time=00:13:59.83 bitrate=N/A speed=17.3x    frame=20297 fps=414 q=-0.0 size=N/A time=00:14:06.55 bitrate=N/A speed=17.3x    frame=20575 fps=415 q=-0.0 size=N/A time=00:14:18.14 bitrate=N/A speed=17.3x    frame=20829 fps=416 q=-0.0 size=N/A time=00:14:28.74 bitrate=N/A speed=17.3x    frame=21103 fps=417 q=-0.0 size=N/A time=00:14:40.17 bitrate=N/A speed=17.4x    frame=21354 fps=418 q=-0.0 size=N/A time=00:14:50.63 bitrate=N/A speed=17.4x    frame=21592 fps=418 q=-0.0 size=N/A time=00:15:00.56 bitrate=N/A speed=17.4x    frame=21860 fps=419 q=-0.0 size=N/A time=00:15:11.74 bitrate=N/A speed=17.5x    frame=22117 fps=420 q=-0.0 size=N/A time=00:15:22.46 bitrate=N/A speed=17.5x    frame=22365 fps=420 q=-0.0 size=N/A time=00:15:32.80 bitrate=N/A speed=17.5x    frame=22629 fps=421 q=-0.0 size=N/A time=00:15:43.81 bitrate=N/A speed=17.6x    frame=22902 fps=422 q=-0.0 size=N/A time=00:15:55.20 bitrate=N/A speed=17.6x    frame=23153 fps=423 q=-0.0 size=N/A time=00:16:05.67 bitrate=N/A speed=17.6x    frame=23416 fps=424 q=-0.0 size=N/A time=00:16:16.64 bitrate=N/A speed=17.7x    frame=23690 fps=425 q=-0.0 size=N/A time=00:16:28.07 bitrate=N/A speed=17.7x    frame=23939 fps=425 q=-0.0 size=N/A time=00:16:38.45 bitrate=N/A speed=17.7x    frame=24205 fps=426 q=-0.0 size=N/A time=00:16:49.55 bitrate=N/A speed=17.8x    frame=24450 fps=426 q=-0.0 size=N/A time=00:16:59.76 bitrate=N/A speed=17.8x    frame=24705 fps=427 q=-0.0 size=N/A time=00:17:10.40 bitrate=N/A speed=17.8x    frame=24929 fps=427 q=-0.0 size=N/A time=00:17:19.74 bitrate=N/A speed=17.8x    frame=25137 fps=427 q=-0.0 size=N/A time=00:17:28.42 bitrate=N/A speed=17.8x    frame=25364 fps=427 q=-0.0 size=N/A time=00:17:37.89 bitrate=N/A speed=17.8x    frame=25617 fps=428 q=-0.0 size=N/A time=00:17:48.44 bitrate=N/A speed=17.8x    frame=25840 fps=428 q=-0.0 size=N/A time=00:17:57.74 bitrate=N/A speed=17.8x    frame=26108 fps=429 q=-0.0 size=N/A time=00:18:08.92 bitrate=N/A speed=17.9x    frame=26384 fps=429 q=-0.0 size=N/A time=00:18:20.43 bitrate=N/A speed=17.9x    frame=26661 fps=430 q=-0.0 size=N/A time=00:18:31.98 bitrate=N/A speed=17.9x    frame=26933 fps=431 q=-0.0 size=N/A time=00:18:43.33 bitrate=N/A speed=  18x    frame=27206 fps=432 q=-0.0 size=N/A time=00:18:54.71 bitrate=N/A speed=  18x    frame=27459 fps=432 q=-0.0 size=N/A time=00:19:05.26 bitrate=N/A speed=  18x    frame=27701 fps=433 q=-0.0 size=N/A time=00:19:15.36 bitrate=N/A speed=  18x    frame=27911 fps=432 q=-0.0 size=N/A time=00:19:24.12 bitrate=N/A speed=  18x    frame=28127 fps=432 q=-0.0 size=N/A time=00:19:33.13 bitrate=N/A speed=  18x    frame=28376 fps=433 q=-0.0 size=N/A time=00:19:43.51 bitrate=N/A speed=18.1x    frame=28594 fps=433 q=-0.0 size=N/A time=00:19:52.60 bitrate=N/A speed=  18x    frame=28834 fps=433 q=-0.0 size=N/A time=00:20:02.61 bitrate=N/A speed=18.1x    frame=29080 fps=433 q=-0.0 size=N/A time=00:20:12.87 bitrate=N/A speed=18.1x    frame=29335 fps=434 q=-0.0 size=N/A time=00:20:23.51 bitrate=N/A speed=18.1x    frame=29588 fps=434 q=-0.0 size=N/A time=00:20:34.06 bitrate=N/A speed=18.1x    frame=29808 fps=434 q=-0.0 size=N/A time=00:20:43.24 bitrate=N/A speed=18.1x    frame=30016 fps=434 q=-0.0 size=N/A time=00:20:51.91 bitrate=N/A speed=18.1x    frame=30282 fps=434 q=-0.0 size=N/A time=00:21:03.01 bitrate=N/A speed=18.1x    frame=30446 fps=434 q=-0.0 size=N/A time=00:21:09.85 bitrate=N/A speed=18.1x    frame=30655 fps=433 q=-0.0 size=N/A time=00:21:18.56 bitrate=N/A speed=18.1x    frame=30846 fps=433 q=-0.0 size=N/A time=00:21:26.53 bitrate=N/A speed=18.1x    frame=31100 fps=433 q=-0.0 size=N/A time=00:21:37.12 bitrate=N/A speed=18.1x    frame=31341 fps=434 q=-0.0 size=N/A time=00:21:47.18 bitrate=N/A speed=18.1x    frame=31544 fps=433 q=-0.0 size=N/A time=00:21:55.64 bitrate=N/A speed=18.1x    frame=31761 fps=433 q=-0.0 size=N/A time=00:22:04.69 bitrate=N/A speed=18.1x    frame=32001 fps=433 q=-0.0 size=N/A time=00:22:14.70 bitrate=N/A speed=18.1x    frame=32208 fps=433 q=-0.0 size=N/A time=00:22:23.34 bitrate=N/A speed=18.1x    frame=32428 fps=433 q=-0.0 size=N/A time=00:22:32.51 bitrate=N/A speed=18.1x    frame=32668 fps=433 q=-0.0 size=N/A time=00:22:42.52 bitrate=N/A speed=18.1x    frame=32881 fps=433 q=-0.0 size=N/A time=00:22:51.41 bitrate=N/A speed=18.1x    frame=33066 fps=433 q=-0.0 size=N/A time=00:22:59.12 bitrate=N/A speed=  18x    frame=33297 fps=433 q=-0.0 size=N/A time=00:23:08.76 bitrate=N/A speed=18.1x    frame=33514 fps=433 q=-0.0 size=N/A time=00:23:17.81 bitrate=N/A speed=  18x    frame=33747 fps=433 q=-0.0 size=N/A time=00:23:27.53 bitrate=N/A speed=18.1x    frame=33960 fps=433 q=-0.0 size=N/A time=00:23:36.41 bitrate=N/A speed=  18x    frame=34198 fps=433 q=-0.0 size=N/A time=00:23:46.34 bitrate=N/A speed=18.1x    frame=34427 fps=433 q=-0.0 size=N/A time=00:23:55.89 bitrate=N/A speed=18.1x    [Parsed_psnr_10 @ 000002718d4b9b80] PSNR y:47.415062 u:50.474747 v:50.673054 average:48.235958 min:37.664091 max:inf
[out#0/null @ 00000271815a25c0] video:14858KiB audio:270440KiB subtitle:0KiB other streams:0KiB global headers:0KiB muxing overhead: unknown
frame=34579 fps=433 q=-0.0 Lsize=N/A time=00:24:02.23 bitrate=N/A speed=18.1x    
